<?xml version="1.0" encoding="UTF-8" standalone="no"?> <!-- Created with Vectornator for iOS (http://vectornator.io/) --><!DOCTYPE svg PUBLIC "-//W3C//DTD SVG 1.1//EN" "http://www.w3.org/Graphics/SVG/1.1/DTD/svg11.dtd">
<svg viewBox="0 0 500 500" style="fill-rule:nonzero;clip-rule:evenodd;stroke-linecap:round;stroke-linejoin:round;" width="100%" xmlns="http://www.w3.org/2000/svg" xml:space="preserve" xmlns:xlink="http://www.w3.org/1999/xlink" height="100%" version="1.1" xmlns:vectornator="http://vectornator.io">
<metadata>
<vectornator:setting key="WDDisplayWhiteBackground" value="false"/>
<vectornator:setting value="false" key="WDSnapToPoints"/>
<vectornator:setting value="false" key="WDOutlineMode"/>
<vectornator:setting key="UndoHistoryDisabled" value="false"/>
<vectornator:setting key="WDRulersVisible" value="true"/>
<vectornator:setting key="IsTimeLapseWatermarkDisabled" value="false"/>
<vectornator:setting key="WDDynamicGuides" value="false"/>
<vectornator:setting value="Points" key="WDUnits"/>
<vectornator:setting key="WDCMYKEnabledKey" value="false"/>
<vectornator:setting value="false" key="WDSnapToEdges"/>
<vectornator:setting key="VNSnapToGuides" value="true"/>
<vectornator:setting value="false" key="WDIsolateActiveLayer"/>
<vectornator:setting value="true" key="WDGuidesVisible"/>
<vectornator:setting value="true" key="VNDimensionsVisible"/>
<vectornator:setting key="VNPencilOnly" value="false"/>
<vectornator:setting key="WDSnapToGrid" value="false"/>
</metadata>
<defs/>
<g vectornator:layerName="Layer 1" id="Layer 1">
<path d="M229.941+185.977L256.458+185.977L279.189+163.246L207.21+163.246L207.21+235.225L229.941+212.494L229.941+185.977Z" opacity="1" fill="#1dcdfe"/>
<path opacity="1" d="M270.059+226.094L243.542+226.094L220.811+248.825L292.79+248.825L292.79+237.46L292.79+176.846L270.059+199.577L270.059+226.094Z" fill="#34f5c5"/>
<path opacity="1" fill="#34f5c5" d="M306.043+262.079L204.003+262.079L204.003+284.81L328.774+284.81L328.774+273.445L328.774+160.039L306.043+160.039L306.043+262.079Z"/>
<path fill="#1dcdfe" d="M193.957+149.992L295.997+149.992L295.997+127.261L171.226+127.261L171.226+252.029L193.957+252.029L193.957+149.992Z" opacity="1"/>
<path d="M328.775+127.261L306.044+127.261L306.044+149.992L328.775+149.992L328.775+127.261Z" opacity="1" fill="#1dcdfe"/>
<path opacity="1" d="M193.957+262.076L171.226+262.076L171.226+284.807L193.957+284.807L193.957+262.076Z" fill="#34f5c5"/>
</g>
</svg>
